<svg width="174" height="44" viewBox="0 0 174 44" fill="none" xmlns="http://www.w3.org/2000/svg">
<path d="M69.7001 14.9654C68.6921 15.9019 67.7387 16.7902 66.8612 17.6049C65.7647 16.8406 64.7924 15.9754 63.6686 15.4169C60.3351 13.758 55.8125 14.157 53.4092 18.0816C51.8392 20.6455 52.1465 24.0514 53.9816 26.6027C56.2797 29.7987 60.8907 30.5735 64.1211 28.7719C65.1397 28.2049 66.013 27.3734 67.019 26.6111C67.8755 27.5329 68.7762 28.5031 69.7212 29.5173C67.5683 31.699 65.1881 33.381 62.0419 33.7128C59.1271 34.0214 56.3323 33.7002 53.7522 32.2219C50.5302 30.3782 48.7014 27.6232 48.3942 23.8834C48.1753 21.225 48.3395 18.6044 49.7937 16.2988C52.0539 12.7144 55.2906 10.5117 59.5754 10.2555C63.7002 10.0098 67.0043 11.7821 69.7022 14.9591L69.7001 14.9654Z" fill="white"/>
<path d="M84.9661 33.3495V31.531C84.7283 31.6948 84.5705 31.7893 84.4274 31.9048C80.5383 35.0356 76.4703 34.0361 73.646 31.0732C72.2592 29.6181 71.6173 27.8416 71.4847 25.8572C71.2911 22.9343 71.874 20.257 73.9091 18.0291C76.4198 15.2804 80.4899 14.7701 83.5961 16.8216C84.0675 17.1324 84.5221 17.4705 85.0861 17.8674V16.0405H89.1814V33.3516H84.964L84.9661 33.3495ZM75.7042 24.8094C75.78 25.3449 75.7947 25.8971 75.942 26.4116C76.4408 28.1692 77.4762 29.4921 79.3387 29.828C81.3064 30.1829 83.0468 29.7482 84.2359 27.9214C85.0187 26.7203 85.2145 25.4163 85.1008 24.0304C84.8672 21.1809 82.4681 19.2848 79.667 19.732C77.2868 20.1121 75.7421 22.1132 75.7063 24.8073L75.7042 24.8094Z" fill="white"/>
<path d="M125.202 26.9072C125.991 25.1643 126.715 23.5768 127.431 21.9873C128.241 20.1877 129.055 18.3923 129.838 16.5802C130.032 16.1308 130.274 15.9586 130.777 15.9754C132.006 16.0174 133.235 15.988 134.571 15.988C134.46 16.282 134.39 16.5025 134.295 16.7125C130.958 24.0829 127.609 31.4491 124.291 38.8258C124.021 39.4222 123.729 39.6868 123.041 39.6469C121.873 39.5776 120.696 39.628 119.41 39.628C120.273 37.7318 120.982 35.8861 121.929 34.1705C122.717 32.7468 122.693 31.5457 122.035 30.0548C120.115 25.7082 118.373 21.2817 116.561 16.8846C116.451 16.618 116.361 16.345 116.23 15.9901C117.657 15.9901 119.006 15.9628 120.353 16.0174C120.559 16.0258 120.835 16.3723 120.938 16.6222C122.279 19.8265 123.596 23.0414 124.918 26.252C124.983 26.4095 125.055 26.567 125.202 26.9051V26.9072Z" fill="white"/>
<path d="M149.835 30.8339C150.764 29.8322 151.647 28.8768 152.517 27.9382C153.196 28.4568 153.809 28.9902 154.484 29.427C155.612 30.1577 156.797 30.1409 157.656 29.4627C158.262 28.9818 158.369 28.4253 157.79 27.8983C157.237 27.3943 156.553 27.029 155.909 26.6321C154.739 25.9118 153.478 25.3176 152.399 24.4819C150.894 23.3206 150.134 21.7164 150.606 19.7803C151.123 17.6532 152.571 16.4185 154.684 15.9628C156.155 15.6457 157.567 15.8347 158.929 16.4899C159.413 16.723 159.969 16.8216 160.432 17.0883C160.996 17.4117 161.496 17.8464 161.983 18.2033C160.975 19.1987 160.055 20.1058 159.158 20.994C158.586 20.6182 157.948 20.0974 157.226 19.7572C156.766 19.5388 156.17 19.4821 155.659 19.5493C155.353 19.5892 154.933 19.9714 154.867 20.2675C154.796 20.5909 154.96 21.1578 155.215 21.3321C156.25 22.0376 157.365 22.6298 158.443 23.2723C159.764 24.0598 161.05 24.8871 161.663 26.4053C162.959 29.616 160.726 33.1416 157.734 33.6581C154.573 34.202 151.934 33.4797 149.838 30.836L149.835 30.8339Z" fill="white"/>
<path d="M166.936 10.0644H171.242V16.4815H174.001V20.32H171.284V33.8262H166.964V20.3557C166.349 20.3557 165.81 20.3872 165.28 20.3368C165.109 20.32 164.825 20.0953 164.821 19.9567C164.783 18.827 164.8 17.6973 164.8 16.4899H166.938V10.0644H166.936Z" fill="white"/>
<path d="M142.108 14.5602H137.292C137.408 14.2935 137.463 14.1192 137.553 13.9659C137.793 13.5627 138.046 13.1659 138.301 12.7732C138.797 12.0089 139.14 10.9547 139.847 10.5705C140.554 10.1862 141.626 10.4655 142.539 10.4634C143.793 10.4592 145.048 10.4634 146.346 10.4634V33.8241H142.108V14.5602Z" fill="white"/>
<path d="M113.848 16.2799C113.415 17.5797 113.002 18.8123 112.6 20.0197C112.495 20.0344 112.44 20.0596 112.4 20.0449C110.771 19.4591 109.78 19.9021 109.363 21.6114C109.079 22.7726 108.98 23.9989 108.951 25.2C108.89 27.7933 108.93 30.3908 108.928 32.9862C108.928 33.2529 108.928 33.5196 108.928 33.8241H104.691V16.3114H108.265V18.2286C109.738 16.1938 111.451 15.3287 113.848 16.2799Z" fill="white"/>
<path d="M96.9363 33.824C95.6631 33.824 94.4825 33.824 93.304 33.824C93.1125 33.824 92.9188 33.8072 92.6895 33.7988V16.2631H96.2734V17.9976C96.9637 17.0841 97.776 16.4542 98.7862 16.072C99.8132 15.6814 100.809 15.7675 101.846 16.2736C101.427 17.5293 101.011 18.7787 100.594 20.0218C98.6704 19.4968 97.7823 19.9504 97.3109 21.6639C97.2057 22.0418 97.1215 22.4366 97.0984 22.8272C97.0268 24.0598 96.9553 25.2924 96.9426 26.5271C96.9195 28.9209 96.9363 31.3168 96.9363 33.8261V33.824Z" fill="white"/>
<path d="M40.3046 10.0308C37.6613 11.5574 35.0412 13.0693 32.4022 14.5938C32.0802 14.2011 31.775 13.8063 31.4467 13.4305C30.0241 11.801 28.2605 10.7322 26.1897 10.1085C24.4893 9.59615 22.7825 9.25178 21.0021 9.34627C18.3378 9.48906 15.9282 10.3521 13.8131 11.9753C11.0878 14.0667 9.43156 16.8385 8.90544 20.236C8.3288 23.959 9.22743 27.3335 11.5276 30.3174C12.9292 32.1337 14.7559 33.3894 16.8541 34.2692C17.0604 34.3553 17.2708 34.4372 17.4792 34.5233C17.5023 34.5338 17.5192 34.5548 17.5591 34.5863C17.235 35.4977 16.9067 36.4174 16.549 37.4232C17.1698 37.2972 17.7191 37.188 18.2663 37.0725C20.617 36.5707 22.9614 36.0394 25.2069 35.1533C27.7449 34.1517 30.003 32.7469 31.7266 30.5798C31.9981 30.2397 32.2422 29.8764 32.5305 29.4795C35.1191 30.9725 37.7013 32.4634 40.2835 33.9522C36.2745 40.4344 27.8333 45.2304 18.4872 43.7227C8.07205 42.0428 0.967266 33.5049 0.100212 24.1459C-0.937306 12.9601 6.20957 3.75231 15.5935 0.940623C25.5015 -2.02645 35.3316 2.30342 40.3046 10.0308Z" fill="white"/>
<path d="M18.0494 17.9556H14.4844C14.9916 17.1177 15.4693 16.3303 15.9491 15.5407C16.2458 15.0536 16.5321 14.5622 16.8477 14.0877C16.9277 13.968 17.1024 13.8357 17.2329 13.8336C18.8596 13.8168 20.4885 13.8231 22.1153 13.8252C22.1532 13.8252 22.1911 13.8399 22.25 13.8525V29.5698H18.0494V17.9556Z" fill="white"/>
<path d="M26.4968 16.5802C26.2422 16.8427 25.9896 17.1073 25.7413 17.3655C25.4825 17.229 25.2552 17.0926 25.0153 16.9876C24.7753 16.8826 24.5144 16.8952 24.3965 17.1514C24.2787 17.4096 24.5165 17.5041 24.7038 17.6133C25.2678 17.9451 25.8781 18.2265 26.3748 18.6422C27.0987 19.2512 27.0335 20.3074 26.3243 20.9416C25.4151 21.7542 23.7084 21.5148 23.0139 20.4586C23.258 20.1772 23.5084 19.8916 23.7568 19.6061C24.3208 19.8811 24.7396 20.6917 25.6045 19.9357C25.1331 19.6124 24.7269 19.3184 24.306 19.0496C23.7673 18.7031 23.2412 18.3567 23.0433 17.6889C22.7824 16.8049 23.298 15.9166 24.1987 15.7172C25.1436 15.5072 25.8066 15.755 26.4968 16.5802Z" fill="white"/>
<path d="M28.3886 17.0358H27.5952V15.904H28.3676V13.842H29.6261V15.8872H30.4173V17.0169C30.1669 17.0316 29.9249 17.0442 29.6534 17.061V21.2733H28.3844V17.0358H28.3886Z" fill="white"/>
</svg>
